<svg xmlns="http://www.w3.org/2000/svg" xmlns:xlink="http://www.w3.org/1999/xlink" width="500" height="500" viewBox="0 0 500 500">
  <defs>
    <clipPath id="clip-Kernfusionsreaktorwebsiteicon_2">
      <rect width="500" height="500"/>
    </clipPath>
  </defs>
  <g id="Kernfusionsreaktorwebsiteicon_2" data-name="Kernfusionsreaktorwebsiteicon – 2" clip-path="url(#clip-Kernfusionsreaktorwebsiteicon_2)">
    <g id="Pfad_8" data-name="Pfad 8" transform="translate(120 120)" fill="none">
      <path d="M130,0c29.724,0,46.936-3.021,79.436,29.479S260,87.927,260,130c0,18.954-6.731,36.458-14.151,52.981-7.351,21.563-23.136,48.284-57.191,60.926S150.662,260,130,260c-28.743,0-65.661-16.4-89.557-37.386-20.031-17.59-29.482-40.286-29.482-40.286S0,148.668,0,130c0-23.693,3.162-38.278,17.548-65.269s15.835-25.538,40-42.7C78.822,6.922,107.247,0,130,0Z" stroke="none"/>
      <path d="M 143.1651306152344 9.925704956054688 L 137.0471343994141 9.960891723632813 L 130 9.999984741210938 C 111.5130462646484 9.999984741210938 84.29145812988281 15.3033447265625 63.33317565917969 30.18785095214844 L 55.09835815429688 35.960205078125 C 39.10922241210938 47.07939147949219 37.80317687988281 47.9876708984375 26.37281799316406 69.43399047851563 C 12.27508544921875 95.88497924804688 10 108.9522552490234 10 129.9999847412109 C 10 143.9834899902344 17.557861328125 170.2804870605469 20.19255065917969 178.4837036132813 C 20.27813720703125 178.6893005371094 28.96136474609375 199.2224426269531 47.04136657714844 215.0996246337891 C 70.06964111328125 235.322265625 104.9587707519531 249.9999847412109 130 249.9999847412109 C 144.7641296386719 249.9999847412109 149.2627258300781 248.2678985595703 168.1963195800781 240.9778900146484 C 172.9332733154297 239.1540222167969 178.4765014648438 237.0198974609375 185.1781311035156 234.5320281982422 C 209.8925476074219 225.3571166992188 227.1208190917969 206.9270782470703 236.7271881103516 178.8838500976563 C 244.6940460205078 161.143798828125 250 146.0418395996094 250 129.9999847412109 C 250 91.48576354980469 233.2585906982422 67.443115234375 202.3650817871094 36.54957580566406 C 177.0273132324219 11.21185302734375 163.3624114990234 9.925704956054688 143.1651306152344 9.925704956054688 M 143.1651458740234 -0.07427978515625 C 165.4986724853516 -0.07427978515625 182.0301208496094 2.072525024414063 209.4361419677734 29.47853088378906 C 241.9361419677734 61.97853088378906 260 87.92680358886719 260 129.9999847412109 C 260 148.9544372558594 253.2694549560547 166.4583435058594 245.8495025634766 182.9805755615234 C 238.4983673095703 204.5439453125 222.7136383056641 231.2642974853516 188.6584167480469 243.9068450927734 C 154.6031799316406 256.5494384765625 150.6616821289063 260 130 260 C 101.2571868896484 260 64.33859252929688 243.5979919433594 40.44287109375 222.6135711669922 C 20.41181945800781 205.0231170654297 10.96099853515625 182.3279876708984 10.96099853515625 182.3279876708984 C 10.96099853515625 182.3279876708984 0 148.6676635742188 0 129.9999847412109 C 0 106.3070373535156 3.1622314453125 91.72193908691406 17.54795837402344 64.73057556152344 C 31.93368530273438 37.7392578125 33.38246154785156 39.19306945800781 57.54295349121094 22.03471374511719 C 78.82240295410156 6.922119140625 107.2466430664063 0 130 0 C 134.6588592529297 0 139.0139770507813 -0.07427978515625 143.1651458740234 -0.07427978515625 Z" stroke="none" fill="#242424"/>
    </g>
    <path id="Pfad_9" data-name="Pfad 9" d="M49,53S25.108,29.346,17.061,19.689,1.771-2.844,1.771-2.844" transform="translate(96.5 85.5)" fill="none" stroke="#242424" stroke-linecap="round" stroke-width="10"/>
    <path id="Pfad_10" data-name="Pfad 10" d="M49,53S28.465,29.41,20.418,19.753,1.771-2.844,1.771-2.844" transform="translate(277.399 29.068) rotate(51)" fill="none" stroke="#242424" stroke-linecap="round" stroke-width="10"/>
    <path id="Pfad_11" data-name="Pfad 11" d="M49,53A173.062,173.062,0,0,1,36.336,38.035C31.383,31.4,27.011,23.5,23.309,19.06,15.262,9.4,1.771-2.844,1.771-2.844" transform="matrix(-0.035, -0.999, 0.999, -0.035, 398.709, 175.823)" fill="none" stroke="#242424" stroke-linecap="round" stroke-width="10"/>
    <path id="Pfad_12" data-name="Pfad 12" d="M49,53S28.6,26.629,20.551,16.973,1.771-2.844,1.771-2.844" transform="matrix(0.809, -0.588, 0.588, 0.809, 401.608, 286.211)" fill="none" stroke="#242424" stroke-linecap="round" stroke-width="10"/>
    <path id="Pfad_13" data-name="Pfad 13" d="M49,53S25.108,29.346,17.061,19.689,1.771-2.844,1.771-2.844" transform="matrix(0.999, -0.035, 0.035, 0.999, 344.64, 388.401)" fill="none" stroke="#242424" stroke-linecap="round" stroke-width="10"/>
    <path id="Pfad_14" data-name="Pfad 14" d="M49,53A137.107,137.107,0,0,1,30.115,36.813c-5.071-5.261-10.1-13.581-13.054-17.125C9.014,10.032,1.771-2.844,1.771-2.844" transform="translate(150.995 373.264) rotate(74)" fill="none" stroke="#242424" stroke-linecap="round" stroke-width="10"/>
    <path id="Pfad_15" data-name="Pfad 15" d="M49,53S28.6,32.045,20.556,22.388,1.771-2.844,1.771-2.844" transform="translate(27.24 252.928) rotate(-42)" fill="none" stroke="#242424" stroke-linecap="round" stroke-width="10"/>
    <path id="Pfad_16" data-name="Pfad 16" d="M49,53A172.2,172.2,0,0,1,37.247,39.308c-6.323-8.18-13.465-18.919-17.642-23.931C11.558,5.72,4.468-2.648,4.468-2.648" transform="matrix(0.788, 0.616, -0.616, 0.788, 249.321, 406.187)" fill="none" stroke="#242424" stroke-linecap="round" stroke-width="10"/>
  </g>
</svg>
