<svg xmlns="http://www.w3.org/2000/svg" xmlns:xlink="http://www.w3.org/1999/xlink" width="1070" height="500" viewBox="0 0 1070 500">
  <defs>
    <clipPath id="clip-Coulombbarriere">
      <rect width="1070" height="500"/>
    </clipPath>
  </defs>
  <g id="Coulombbarriere" clip-path="url(#clip-Coulombbarriere)">
    <g id="Atom_links" data-name="Atom links">
      <g id="Pfad_8" data-name="Pfad 8" transform="translate(239 153)" fill="#ff3f3f">
        <path d="M 73.25469970703125 142.7269744873047 C 69.59900665283203 142.7269744873047 65.57500457763672 142.2129211425781 61.29443740844727 141.1990509033203 C 57.12604904174805 140.2117462158203 52.80974197387695 138.7743530273438 48.46546173095703 136.9267578125 C 39.86485290527344 133.26904296875 31.62504768371582 128.1782379150391 25.26389503479004 122.5920867919922 C 19.82941627502441 117.8197402954102 15.8811559677124 112.299674987793 13.52593898773193 108.5092849731445 C 11.23785781860352 104.8269653320313 9.963151931762695 102.0102005004883 9.69154167175293 101.3903121948242 C 9.414909362792969 100.5256576538086 8.053114891052246 96.21097564697266 6.710351943969727 90.93813323974609 C 4.773677825927734 83.33306884765625 3.750004053115845 77.20702362060547 3.750004053115845 73.22228240966797 C 3.750004053115845 66.21050262451172 4.26691722869873 61.35734939575195 5.534156322479248 56.47108840942383 C 6.891677856445313 51.23671722412109 9.255156517028809 45.60382843017578 13.19754791259766 38.20689392089844 C 16.84854698181152 31.35669708251953 18.77039527893066 28.26889228820801 20.81376457214355 25.97002220153809 C 22.95041656494141 23.56621932983398 25.44428634643555 21.83193588256836 29.97161293029785 18.68352317810059 C 31.32480812072754 17.74247932434082 32.85857009887695 16.67587089538574 34.59665679931641 15.44150066375732 C 39.86943817138672 11.69680500030518 46.42794036865234 8.634914398193359 53.56317901611328 6.586827278137207 C 60.10261154174805 4.709762096405029 66.91182708740234 3.717587947845459 73.25469970703125 3.717587947845459 C 74.62109375 3.717587947845459 75.93711090087891 3.706413984298706 77.20978546142578 3.695631504058838 C 78.41500091552734 3.685392379760742 79.55337524414063 3.675740242004395 80.67333221435547 3.675740242004395 C 87.18672180175781 3.675740242004395 91.93526458740234 4.050022602081299 96.93245697021484 5.963109970092773 C 102.6426315307617 8.149174690246582 108.4997634887695 12.36491394042969 115.3651351928711 19.23030471801758 C 125.5829162597656 29.44806671142578 131.7046508789063 37.05502319335938 135.834716796875 44.66608810424805 C 140.5590209960938 53.37221908569336 142.7593994140625 62.44615173339844 142.7593994140625 73.22228240966797 C 142.7593994140625 77.75228118896484 142.0186767578125 82.45469665527344 140.4948883056641 87.59825897216797 C 138.9898986816406 92.67839050292969 136.9306488037109 97.49691772460938 135.1147613525391 101.5404357910156 L 135.0428466796875 101.7005462646484 L 134.9862213134766 101.8666763305664 C 132.6543579101563 108.7068252563477 129.3561096191406 114.7163238525391 125.1831359863281 119.7282180786133 C 119.846809387207 126.1373519897461 113.057373046875 130.9030609130859 105.0034637451172 133.8929748535156 C 101.23095703125 135.29345703125 98.16261291503906 136.4748687744141 95.45545959472656 137.5171966552734 C 90.16358947753906 139.5547180175781 86.66758728027344 140.9007873535156 83.53774261474609 141.6849365234375 C 80.54470062255859 142.4348297119141 77.66161346435547 142.7269744873047 73.25469970703125 142.7269744873047 Z" stroke="none"/>
        <path d="M 80.67330169677734 7.425735473632813 L 77.24159240722656 7.445480346679688 L 73.25469970703125 7.46759033203125 C 63.12493896484375 7.46759033203125 48.22032928466797 10.36550903320313 36.76799011230469 18.49892425537109 L 32.1126708984375 21.76221466064453 C 23.26583099365234 27.91450500488281 22.73622894287109 28.28279876708984 16.50685119628906 39.97066497802734 C 8.751541137695313 54.52169036865234 7.499984741210938 61.69055938720703 7.499984741210938 73.22229766845703 C 7.499984741210938 80.85403442382813 11.69282531738281 95.4197998046875 13.09248352050781 99.80747985839844 C 13.14027404785156 99.92047882080078 17.98275756835938 111.2073516845703 27.73835754394531 119.7743453979492 C 40.40877532958984 130.9011077880859 59.55117034912109 138.9769744873047 73.25469970703125 138.9769744873047 C 81.22756958007813 138.9769744873047 83.44630432128906 138.1227111816406 94.10798645019531 134.0176696777344 C 96.78314208984375 132.9876403808594 99.91367340087891 131.7824249267578 103.698356628418 130.3773956298828 C 117.0738296508789 125.4119262695313 126.4064102172852 115.4124298095703 131.6938781738281 100.0041351318359 C 136.0849151611328 90.22647857666016 139.0093841552734 81.93023681640625 139.0093841552734 73.22229766845703 C 139.0093841552734 52.05119323730469 130.1539154052734 39.32237243652344 112.7134628295898 21.88195037841797 C 98.95561981201172 8.12408447265625 91.575439453125 7.425735473632813 80.67330169677734 7.425735473632813 M 80.67330932617188 -0.0742645263671875 C 93.25820922851563 -0.0742645263671875 102.5735702514648 1.13543701171875 118.0167770385742 16.57865905761719 C 136.3304595947266 34.89231872558594 146.5093841552734 49.51413726806641 146.5093841552734 73.22229766845703 C 146.5093841552734 83.90306091308594 142.7167510986328 93.76644897460938 138.5356140136719 103.0766906738281 C 134.3932495117188 115.2276153564453 125.4986190795898 130.2844848632813 106.3085632324219 137.4085388183594 C 87.11854553222656 144.5325775146484 84.89751434326172 146.4769744873047 73.25469970703125 146.4769744873047 C 57.05819702148438 146.4769744873047 36.25464630126953 137.2345123291016 22.78945922851563 125.4098205566406 C 11.50201416015625 115.4976119995117 6.176483154296875 102.708984375 6.176483154296875 102.708984375 C 6.176483154296875 102.708984375 -1.52587890625e-05 83.741455078125 -1.52587890625e-05 73.22229766845703 C -1.52587890625e-05 59.87134552001953 1.781906127929688 51.65268707275391 9.888229370117188 36.44310760498047 C 17.99456787109375 21.23358154296875 18.81093597412109 22.05279541015625 32.42533111572266 12.38407897949219 C 44.41625213623047 3.8681640625 60.4332275390625 -0.03240966796875 73.25469970703125 -0.03240966796875 C 75.87995910644531 -0.03240966796875 78.33413696289063 -0.0742645263671875 80.67330932617188 -0.0742645263671875 Z" stroke="none" fill="#242424"/>
      </g>
      <g id="Ellipse_9" data-name="Ellipse 9" transform="translate(195 109)" fill="none" stroke="#5a89c9" stroke-linecap="round" stroke-width="2" stroke-dasharray="11 12" style="mix-blend-mode: darken;isolation: isolate">
        <circle cx="117.5" cy="117.5" r="117.5" stroke="none"/>
        <circle cx="117.5" cy="117.5" r="116.5" fill="none"/>
      </g>
    </g>
    <line id="Linie_13" data-name="Linie 13" x1="23" y2="30" transform="translate(390.5 92.5)" fill="none" stroke="#555" stroke-linecap="round" stroke-width="2"/>
    <text id="Coulombbarriere-2" data-name="Coulombbarriere" transform="translate(414 80)" fill="#242424" font-size="20" font-family="SegoeUI-Semibold, Segoe UI" font-weight="600"><tspan x="0" y="0">Coulombbarriere</tspan></text>
    <g id="Atom_rechts" data-name="Atom rechts">
      <g id="Pfad_33" data-name="Pfad 33" transform="matrix(0.788, 0.616, -0.616, 0.788, 745.596, 122.418)" fill="#ff3f3f">
        <path d="M 73.25469970703125 142.7269744873047 C 69.59900665283203 142.7269744873047 65.57500457763672 142.2129211425781 61.29443740844727 141.1990509033203 C 57.12604904174805 140.2117462158203 52.80974197387695 138.7743530273438 48.46546173095703 136.9267578125 C 39.86485290527344 133.26904296875 31.62504768371582 128.1782379150391 25.26389503479004 122.5920867919922 C 19.82941627502441 117.8197402954102 15.8811559677124 112.299674987793 13.52593898773193 108.5092849731445 C 11.23785781860352 104.8269653320313 9.963151931762695 102.0102005004883 9.69154167175293 101.3903121948242 C 9.414909362792969 100.5256576538086 8.053114891052246 96.21097564697266 6.710351943969727 90.93813323974609 C 4.773677825927734 83.33306884765625 3.750004053115845 77.20702362060547 3.750004053115845 73.22228240966797 C 3.750004053115845 66.21050262451172 4.26691722869873 61.35734939575195 5.534156322479248 56.47108840942383 C 6.891677856445313 51.23671722412109 9.255156517028809 45.60382843017578 13.19754791259766 38.20689392089844 C 16.84854698181152 31.35669708251953 18.77039527893066 28.26889228820801 20.81376457214355 25.97002220153809 C 22.95041656494141 23.56621932983398 25.44428634643555 21.83193588256836 29.97161293029785 18.68352317810059 C 31.32480812072754 17.74247932434082 32.85857009887695 16.67587089538574 34.59665679931641 15.44150066375732 C 39.86943817138672 11.69680500030518 46.42794036865234 8.634914398193359 53.56317901611328 6.586827278137207 C 60.10261154174805 4.709762096405029 66.91182708740234 3.717587947845459 73.25469970703125 3.717587947845459 C 74.62109375 3.717587947845459 75.93711090087891 3.706413984298706 77.20978546142578 3.695631504058838 C 78.41500091552734 3.685392379760742 79.55337524414063 3.675740242004395 80.67333221435547 3.675740242004395 C 87.18672180175781 3.675740242004395 91.93526458740234 4.050022602081299 96.93245697021484 5.963109970092773 C 102.6426315307617 8.149174690246582 108.4997634887695 12.36491394042969 115.3651351928711 19.23030471801758 C 125.5829162597656 29.44806671142578 131.7046508789063 37.05502319335938 135.834716796875 44.66608810424805 C 140.5590209960938 53.37221908569336 142.7593994140625 62.44615173339844 142.7593994140625 73.22228240966797 C 142.7593994140625 77.75228118896484 142.0186767578125 82.45469665527344 140.4948883056641 87.59825897216797 C 138.9898986816406 92.67839050292969 136.9306488037109 97.49691772460938 135.1147613525391 101.5404357910156 L 135.0428466796875 101.7005462646484 L 134.9862213134766 101.8666763305664 C 132.6543579101563 108.7068252563477 129.3561096191406 114.7163238525391 125.1831359863281 119.7282180786133 C 119.846809387207 126.1373519897461 113.057373046875 130.9030609130859 105.0034637451172 133.8929748535156 C 101.23095703125 135.29345703125 98.16261291503906 136.4748687744141 95.45545959472656 137.5171966552734 C 90.16358947753906 139.5547180175781 86.66758728027344 140.9007873535156 83.53774261474609 141.6849365234375 C 80.54470062255859 142.4348297119141 77.66161346435547 142.7269744873047 73.25469970703125 142.7269744873047 Z" stroke="none"/>
        <path d="M 80.67330169677734 7.425735473632813 L 77.24159240722656 7.445480346679688 L 73.25469970703125 7.46759033203125 C 63.12493896484375 7.46759033203125 48.22032928466797 10.36550903320313 36.76799011230469 18.49892425537109 L 32.1126708984375 21.76221466064453 C 23.26583099365234 27.91450500488281 22.73622894287109 28.28279876708984 16.50685119628906 39.97066497802734 C 8.751541137695313 54.52169036865234 7.499984741210938 61.69055938720703 7.499984741210938 73.22229766845703 C 7.499984741210938 80.85403442382813 11.69282531738281 95.4197998046875 13.09248352050781 99.80747985839844 C 13.14027404785156 99.92047882080078 17.98275756835938 111.2073516845703 27.73835754394531 119.7743453979492 C 40.40877532958984 130.9011077880859 59.55117034912109 138.9769744873047 73.25469970703125 138.9769744873047 C 81.22756958007813 138.9769744873047 83.44630432128906 138.1227111816406 94.10798645019531 134.0176696777344 C 96.78314208984375 132.9876403808594 99.91367340087891 131.7824249267578 103.698356628418 130.3773956298828 C 117.0738296508789 125.4119262695313 126.4064102172852 115.4124298095703 131.6938781738281 100.0041351318359 C 136.0849151611328 90.22647857666016 139.0093841552734 81.93023681640625 139.0093841552734 73.22229766845703 C 139.0093841552734 52.05119323730469 130.1539154052734 39.32237243652344 112.7134628295898 21.88195037841797 C 98.95561981201172 8.12408447265625 91.575439453125 7.425735473632813 80.67330169677734 7.425735473632813 M 80.67330932617188 -0.0742645263671875 C 93.25820922851563 -0.0742645263671875 102.5735702514648 1.13543701171875 118.0167770385742 16.57865905761719 C 136.3304595947266 34.89231872558594 146.5093841552734 49.51413726806641 146.5093841552734 73.22229766845703 C 146.5093841552734 83.90306091308594 142.7167510986328 93.76644897460938 138.5356140136719 103.0766906738281 C 134.3932495117188 115.2276153564453 125.4986190795898 130.2844848632813 106.3085632324219 137.4085388183594 C 87.11854553222656 144.5325775146484 84.89751434326172 146.4769744873047 73.25469970703125 146.4769744873047 C 57.05819702148438 146.4769744873047 36.25464630126953 137.2345123291016 22.78945922851563 125.4098205566406 C 11.50201416015625 115.4976119995117 6.176483154296875 102.708984375 6.176483154296875 102.708984375 C 6.176483154296875 102.708984375 -1.52587890625e-05 83.741455078125 -1.52587890625e-05 73.22229766845703 C -1.52587890625e-05 59.87134552001953 1.781906127929688 51.65268707275391 9.888229370117188 36.44310760498047 C 17.99456787109375 21.23358154296875 18.81093597412109 22.05279541015625 32.42533111572266 12.38407897949219 C 44.41625213623047 3.8681640625 60.4332275390625 -0.03240966796875 73.25469970703125 -0.03240966796875 C 75.87995910644531 -0.03240966796875 78.33413696289063 -0.0742645263671875 80.67330932617188 -0.0742645263671875 Z" stroke="none" fill="#242424"/>
      </g>
      <g id="Ellipse_10" data-name="Ellipse 10" transform="translate(641 108)" fill="none" stroke="#5a89c9" stroke-linecap="round" stroke-width="2" stroke-dasharray="11 12" style="mix-blend-mode: darken;isolation: isolate">
        <circle cx="117.5" cy="117.5" r="117.5" stroke="none"/>
        <circle cx="117.5" cy="117.5" r="116.5" fill="none"/>
      </g>
    </g>
  </g>
</svg>
