<svg xmlns="http://www.w3.org/2000/svg" xmlns:xlink="http://www.w3.org/1999/xlink" width="1070" height="500" viewBox="0 0 1070 500">
  <defs>
    <clipPath id="clip-fusionsablauf_01">
      <rect width="1070" height="500"/>
    </clipPath>
  </defs>
  <g id="fusionsablauf_01" clip-path="url(#clip-fusionsablauf_01)">
    <g id="Pfad_8" data-name="Pfad 8" transform="translate(156 62)" fill="#ff3f3f">
      <path d="M 53.34248352050781 103.6411743164063 C 50.70136642456055 103.6411743164063 47.79204940795898 103.2692718505859 44.69535064697266 102.5358047485352 C 41.67480087280273 101.8203887939453 38.54634857177734 100.7784881591797 35.39690017700195 99.43907165527344 C 29.15979957580566 96.78652191162109 23.18543434143066 93.09563446044922 18.57435035705566 89.04634094238281 C 11.4086856842041 82.75373077392578 7.743027210235596 74.70552825927734 7.310286998748779 73.71718597412109 C 6.872006416320801 72.34452056884766 3.000000238418579 60.02238082885742 3.000000238418579 53.29868698120117 C 3.000000238418579 48.21726989746094 3.373900175094604 44.70290374755859 4.290566921234131 41.16845321655273 C 5.273533344268799 37.37826919555664 6.987466812133789 33.29473876953125 9.84784984588623 27.92793655395508 C 12.49515056610107 22.96090316772461 13.88541698455811 20.72562026977539 15.3574333190918 19.06955337524414 C 16.89203262329102 17.34307098388672 18.69868278503418 16.0866870880127 21.97845077514648 13.80587100982666 C 22.96433258056641 13.12027072906494 24.08175086975098 12.34318733215332 25.34848403930664 11.44357013702393 C 29.16348266601563 8.734170913696289 33.91101837158203 6.518153667449951 39.07785034179688 5.035070419311523 C 43.81589889526367 3.675070524215698 48.74853515625 2.956203937530518 53.34248352050781 2.956203937530518 C 54.33860015869141 2.956203937530518 55.29746627807617 2.948070526123047 56.22476577758789 2.940203905105591 C 57.10178375244141 2.932753801345825 57.93016815185547 2.925720453262329 58.74454879760742 2.925720453262329 C 63.4559326171875 2.925720453262329 66.88784790039063 3.195353984832764 70.48780059814453 4.573554039001465 C 74.60928344726563 6.151403903961182 78.84439849853516 9.201804161071777 83.81594848632813 14.17335414886475 C 91.23693084716797 21.5943546295166 95.68081665039063 27.11503791809082 98.67516326904297 32.63315200805664 C 102.0930633544922 38.93177032470703 103.6849670410156 45.49840545654297 103.6849670410156 53.29868698120117 C 103.6849670410156 56.57107162475586 103.1492156982422 59.97023773193359 102.0471038818359 63.69045257568359 C 100.9557189941406 67.37447357177734 99.46056365966797 70.87278747558594 98.14193725585938 73.80899047851563 L 98.08441925048828 73.93708801269531 L 98.03910064697266 74.07000732421875 C 96.35175323486328 79.01956939697266 93.9661865234375 83.36680603027344 90.94866943359375 86.990966796875 C 87.09335327148438 91.62135314941406 82.18755340576172 95.06467437744141 76.36751556396484 97.22528839111328 C 73.61898040771484 98.24563598632813 71.38388061523438 99.10622406005859 69.41190338134766 99.86548614501953 C 65.56770324707031 101.3456192016602 63.02806854248047 102.3234405517578 60.76493453979492 102.8904571533203 C 58.60866546630859 103.4306869506836 56.5275993347168 103.6411743164063 53.34248352050781 103.6411743164063 Z" stroke="none"/>
      <path d="M 58.74448394775391 5.925704956054688 L 56.25020217895508 5.9400634765625 L 53.34248352050781 5.956184387207031 C 46.04928207397461 5.956184387207031 35.32162475585938 8.040267944335938 27.08554077148438 13.88950347900391 L 23.6912841796875 16.26882934570313 C 17.34988403320313 20.67876434326172 16.97028350830078 20.94276428222656 12.49528503417969 29.33896636962891 C 6.981300354003906 39.68460845947266 6 44.61048889160156 6 53.29868698120117 C 6 58.78440856933594 9.034080505371094 69.31794738769531 10.02976226806641 72.44757080078125 C 10.06414031982422 72.52880859375 13.55010223388672 80.64168548583984 20.55390167236328 86.79214477539063 C 29.69188690185547 94.81680297851563 43.48146438598633 100.6411666870117 53.34248352050781 100.6411666870117 C 59.04804229736328 100.6411666870117 60.6475830078125 100.0253067016602 68.3338623046875 97.06586456298828 L 75.32342529296875 94.41282653808594 C 84.90404510498047 90.85614776611328 91.59134674072266 83.68614959716797 95.40524291992188 72.57998657226563 C 98.5743408203125 65.52328491210938 100.6849670410156 59.54384613037109 100.6849670410156 53.29868698120117 C 100.6849670410156 38.07098388671875 94.28972625732422 28.88978576660156 81.69462585449219 16.29467010498047 C 71.80720520019531 6.407264709472656 66.77958679199219 5.925704956054688 58.74448394775391 5.925704956054688 M 58.74448394775391 -0.07428741455078125 C 67.90853118896484 -0.07428741455078125 74.69184875488281 0.806610107421875 85.93726348876953 12.05202484130859 C 99.27288055419922 25.38764953613281 106.6849670410156 36.03492736816406 106.6849670410156 53.29868698120117 C 106.6849670410156 61.07618713378906 103.9232406616211 68.25852966308594 100.8786468505859 75.03802490234375 C 97.86226654052734 83.88606262207031 91.38536071777344 94.85014343261719 77.41160583496094 100.037727355957 C 63.43782424926758 105.2253036499023 61.82052230834961 106.6411666870117 53.34248352050781 106.6411666870117 C 41.54854583740234 106.6411666870117 26.39984130859375 99.91098785400391 16.59480285644531 91.30052947998047 C 8.375503540039063 84.08266448974609 4.497581481933594 74.770263671875 4.497581481933594 74.770263671875 C 4.497581481933594 74.770263671875 0 60.95852661132813 0 53.29868698120117 C 0 43.57682800292969 1.29754638671875 37.59217071533203 7.200386047363281 26.51690673828125 C 13.10326385498047 15.44162750244141 13.69772338867188 16.03816986083984 23.61142730712891 8.997627258300781 C 32.34294128417969 2.796524047851563 44.00616455078125 -0.04381561279296875 53.34248352050781 -0.04381561279296875 C 55.2541389465332 -0.04381561279296875 57.0411491394043 -0.07428741455078125 58.74448394775391 -0.07428741455078125 Z" stroke="none" fill="#242424"/>
    </g>
    <g id="Pfad_17" data-name="Pfad 17" transform="translate(197 85)" fill="#e9e9e9">
      <path d="M 53.34248733520508 102.0216064453125 C 47.12337112426758 102.0216064453125 40.94713592529297 101.1989059448242 35.48146820068359 99.6424560546875 C 29.04150390625 97.80857086181641 23.64718627929688 95.00910949707031 19.44838714599609 91.32187652587891 C 12.22884464263916 84.98195648193359 7.781935214996338 74.82884979248047 7.313990116119385 73.72877502441406 C 6.89445161819458 72.41588592529297 3.000003099441528 60.04186248779297 3.000003099441528 53.29869079589844 C 3.000003099441528 48.2172737121582 3.373903036117554 44.70290756225586 4.29056978225708 41.16845703125 C 5.273536205291748 37.37827301025391 6.987469673156738 33.29474258422852 9.84785270690918 27.92794036865234 C 11.95365333557129 23.97690773010254 13.58736991882324 21.53359031677246 15.31056976318359 19.75809097290039 C 16.9620189666748 18.0565242767334 18.76413726806641 16.87602424621582 21.49197006225586 15.08912467956543 C 23.07441902160645 14.05252456665039 24.86800384521484 12.87760734558105 27.05426979064941 11.32495784759521 C 31.00165367126465 8.521541595458984 35.35128784179688 6.380224227905273 39.98236846923828 4.960441112518311 C 44.32035446166992 3.630524396896362 48.81533813476563 2.956207752227783 53.34248733520508 2.956207752227783 C 54.10010147094727 2.956207752227783 54.83795166015625 2.952807903289795 55.55152130126953 2.949524402618408 C 56.23960113525391 2.946357727050781 56.8895378112793 2.943357706069946 57.53340148925781 2.943357706069946 C 61.91170120239258 2.943357706069946 65.86455535888672 3.063007831573486 69.90377044677734 4.533340930938721 C 74.15290069580078 6.080090999603271 78.58761596679688 9.157024383544922 83.86009979248047 14.21659088134766 C 87.43260192871094 17.64485740661621 90.12285614013672 20.4858570098877 92.32643890380859 23.15737533569336 C 94.6959228515625 26.03000831604004 96.52783966064453 28.75379180908203 97.92687225341797 31.48440742492676 C 100.819206237793 37.12959289550781 102.1090393066406 43.26904296875 102.1090393066406 51.39105606079102 C 102.1090393066406 60.02407455444336 100.6630859375 68.19509124755859 98.14193725585938 73.80900573730469 L 98.08441925048828 73.93708801269531 L 98.03910064697266 74.07000732421875 C 96.75592041015625 77.83402252197266 94.867919921875 82.70240783691406 91.63103485107422 86.97469329833984 C 88.15097045898438 91.56793975830078 83.66072082519531 94.83970642089844 77.90370178222656 96.97692108154297 C 64.31484985351563 102.0216064453125 61.54996871948242 102.0216064453125 53.34248733520508 102.0216064453125 Z" stroke="none"/>
      <path d="M 57.53337860107422 5.943351745605469 L 55.56529998779297 5.949478149414063 L 53.34247970581055 5.956192016601563 C 47.16213989257813 5.956192016601563 37.88590240478516 7.311973571777344 28.79132080078125 13.77091217041016 C 26.57794189453125 15.34281158447266 24.73200225830078 16.55305480957031 23.13584136962891 17.5986328125 C 17.8280029296875 21.07561492919922 16.40139770507813 22.01011657714844 12.49530029296875 29.33895111083984 C 6.9813232421875 39.68459320068359 6 44.6104736328125 6 53.2986946105957 C 6 58.78439331054688 9.034080505371094 69.31795501708984 10.04540252685547 72.48519897460938 C 10.08821868896484 72.58865356445313 14.40709686279297 82.90225219726563 21.42791748046875 89.06767272949219 C 31.65834045410156 98.05167388916016 47.15478134155273 99.02159118652344 53.34247970581055 99.02159118652344 C 61.35713958740234 99.02159118652344 63.7760009765625 99.02159118652344 76.85960388183594 94.16447448730469 C 88.08831787109375 89.99593353271484 92.31005859375 81.57791137695313 95.40524291992188 72.57997131347656 C 97.75905609130859 67.33866882324219 99.10903930664063 59.61561584472656 99.10903930664063 51.39105606079102 C 99.10903930664063 36.95925140380859 95.38474273681641 29.43375396728516 81.78292083740234 16.38115692138672 C 70.90594482421875 5.943351745605469 65.58604431152344 5.943351745605469 57.53337860107422 5.943351745605469 M 57.53337478637695 -0.05664825439453125 C 67.28865051269531 -0.05664825439453125 74.03428649902344 0.6296615600585938 85.937255859375 12.05201721191406 C 99.46705627441406 25.03551483154297 105.1090393066406 34.12729644775391 105.1090393066406 51.39105606079102 C 105.1090393066406 59.16855621337891 103.9232406616211 68.25851440429688 100.8786392211914 75.03801727294922 C 97.86225891113281 83.88605499267578 92.92156219482422 94.60177612304688 78.94777679443359 99.78937530517578 C 64.97401428222656 104.9769515991211 61.82051849365234 105.0215911865234 53.34247970581055 105.0215911865234 C 41.54853820800781 105.0215911865234 27.27388000488281 102.1865158081055 17.46881866455078 93.57605743408203 C 9.249542236328125 86.35819244384766 4.497581481933594 74.77027893066406 4.497581481933594 74.77027893066406 C 4.497581481933594 74.77027893066406 0 60.95851516723633 0 53.2986946105957 C 0 43.57683563232422 1.297538757324219 37.59215545654297 7.200401306152344 26.51689147949219 C 13.10325622558594 15.44163513183594 15.40350341796875 15.91957092285156 25.31719970703125 8.879035949707031 C 34.04872131347656 2.677932739257813 44.00616073608398 -0.0438079833984375 53.34247970581055 -0.0438079833984375 C 54.80897521972656 -0.0438079833984375 56.20009231567383 -0.05664825439453125 57.53337478637695 -0.05664825439453125 Z" stroke="none" fill="#242424"/>
    </g>
    <g id="Pfad_18" data-name="Pfad 18" transform="translate(165 311)" fill="#ff3f3f">
      <path d="M 53.34248352050781 103.6411743164063 C 50.70136642456055 103.6411743164063 47.79204940795898 103.2692718505859 44.69535064697266 102.5358047485352 C 41.67480087280273 101.8203887939453 38.54634857177734 100.7784881591797 35.39690017700195 99.43907165527344 C 29.15979957580566 96.78652191162109 23.18543434143066 93.09563446044922 18.57435035705566 89.04634094238281 C 11.4086856842041 82.75373077392578 7.743027210235596 74.70552825927734 7.310286998748779 73.71718597412109 C 6.872006416320801 72.34452056884766 3.000000238418579 60.02238082885742 3.000000238418579 53.29868698120117 C 3.000000238418579 48.21726989746094 3.373900175094604 44.70290374755859 4.290566921234131 41.16845321655273 C 5.273533344268799 37.37826919555664 6.987466812133789 33.29473876953125 9.84784984588623 27.92793655395508 C 12.49515056610107 22.96090316772461 13.88541698455811 20.72562026977539 15.3574333190918 19.06955337524414 C 16.89203262329102 17.34307098388672 18.69868278503418 16.0866870880127 21.97845077514648 13.80587100982666 C 22.96433258056641 13.12027072906494 24.08175086975098 12.34318733215332 25.34848403930664 11.44357013702393 C 29.16348266601563 8.734170913696289 33.91101837158203 6.518153667449951 39.07785034179688 5.035070419311523 C 43.81589889526367 3.675070524215698 48.74853515625 2.956203937530518 53.34248352050781 2.956203937530518 C 54.33860015869141 2.956203937530518 55.29746627807617 2.948070526123047 56.22476577758789 2.940203905105591 C 57.10178375244141 2.932753801345825 57.93016815185547 2.925720453262329 58.74454879760742 2.925720453262329 C 63.4559326171875 2.925720453262329 66.88784790039063 3.195353984832764 70.48780059814453 4.573554039001465 C 74.60928344726563 6.151403903961182 78.84439849853516 9.201804161071777 83.81594848632813 14.17335414886475 C 91.23693084716797 21.5943546295166 95.68081665039063 27.11503791809082 98.67516326904297 32.63315200805664 C 102.0930633544922 38.93177032470703 103.6849670410156 45.49840545654297 103.6849670410156 53.29868698120117 C 103.6849670410156 56.57107162475586 103.1492156982422 59.97023773193359 102.0471038818359 63.69045257568359 C 100.9557189941406 67.37447357177734 99.46056365966797 70.87278747558594 98.14193725585938 73.80899047851563 L 98.08441925048828 73.93708801269531 L 98.03910064697266 74.07000732421875 C 96.35175323486328 79.01956939697266 93.9661865234375 83.36680603027344 90.94866943359375 86.990966796875 C 87.09335327148438 91.62135314941406 82.18755340576172 95.06467437744141 76.36751556396484 97.22528839111328 C 73.61898040771484 98.24563598632813 71.38388061523438 99.10622406005859 69.41190338134766 99.86548614501953 C 65.56770324707031 101.3456192016602 63.02806854248047 102.3234405517578 60.76493453979492 102.8904571533203 C 58.60866546630859 103.4306869506836 56.5275993347168 103.6411743164063 53.34248352050781 103.6411743164063 Z" stroke="none"/>
      <path d="M 58.74448394775391 5.925704956054688 L 56.25020217895508 5.9400634765625 L 53.34248352050781 5.956184387207031 C 46.04928207397461 5.956184387207031 35.32162475585938 8.040267944335938 27.08554077148438 13.88950347900391 L 23.6912841796875 16.26882934570313 C 17.34988403320313 20.67876434326172 16.97028350830078 20.94276428222656 12.49528503417969 29.33896636962891 C 6.981300354003906 39.68460845947266 6 44.61048889160156 6 53.29868698120117 C 6 58.78440856933594 9.034080505371094 69.31794738769531 10.02976226806641 72.44757080078125 C 10.06414031982422 72.52880859375 13.55010223388672 80.64168548583984 20.55390167236328 86.79214477539063 C 29.69188690185547 94.81680297851563 43.48146438598633 100.6411666870117 53.34248352050781 100.6411666870117 C 59.04804229736328 100.6411666870117 60.6475830078125 100.0253067016602 68.3338623046875 97.06586456298828 L 75.32342529296875 94.41282653808594 C 84.90404510498047 90.85614776611328 91.59134674072266 83.68614959716797 95.40524291992188 72.57998657226563 C 98.5743408203125 65.52328491210938 100.6849670410156 59.54384613037109 100.6849670410156 53.29868698120117 C 100.6849670410156 38.07098388671875 94.28972625732422 28.88978576660156 81.69462585449219 16.29467010498047 C 71.80720520019531 6.407264709472656 66.77958679199219 5.925704956054688 58.74448394775391 5.925704956054688 M 58.74448394775391 -0.07428741455078125 C 67.90853118896484 -0.07428741455078125 74.69184875488281 0.806610107421875 85.93726348876953 12.05202484130859 C 99.27288055419922 25.38764953613281 106.6849670410156 36.03492736816406 106.6849670410156 53.29868698120117 C 106.6849670410156 61.07618713378906 103.9232406616211 68.25852966308594 100.8786468505859 75.03802490234375 C 97.86226654052734 83.88606262207031 91.38536071777344 94.85014343261719 77.41160583496094 100.037727355957 C 63.43782424926758 105.2253036499023 61.82052230834961 106.6411666870117 53.34248352050781 106.6411666870117 C 41.54854583740234 106.6411666870117 26.39984130859375 99.91098785400391 16.59480285644531 91.30052947998047 C 8.375503540039063 84.08266448974609 4.497581481933594 74.770263671875 4.497581481933594 74.770263671875 C 4.497581481933594 74.770263671875 0 60.95852661132813 0 53.29868698120117 C 0 43.57682800292969 1.29754638671875 37.59217071533203 7.200386047363281 26.51690673828125 C 13.10326385498047 15.44162750244141 13.69772338867188 16.03816986083984 23.61142730712891 8.997627258300781 C 32.34294128417969 2.796524047851563 44.00616455078125 -0.04381561279296875 53.34248352050781 -0.04381561279296875 C 55.2541389465332 -0.04381561279296875 57.0411491394043 -0.07428741455078125 58.74448394775391 -0.07428741455078125 Z" stroke="none" fill="#242424"/>
    </g>
    <g id="Pfad_19" data-name="Pfad 19" transform="translate(219 333)" fill="#e9e9e9">
      <path d="M 53.34248733520508 102.0216064453125 C 47.12337112426758 102.0216064453125 40.94713592529297 101.1989059448242 35.48146820068359 99.6424560546875 C 29.04150390625 97.80857086181641 23.64718627929688 95.00910949707031 19.44838714599609 91.32187652587891 C 12.22884464263916 84.98195648193359 7.781935214996338 74.82884979248047 7.313990116119385 73.72877502441406 C 6.89445161819458 72.41588592529297 3.000003099441528 60.04186248779297 3.000003099441528 53.29869079589844 C 3.000003099441528 48.2172737121582 3.373903036117554 44.70290756225586 4.29056978225708 41.16845703125 C 5.273536205291748 37.37827301025391 6.987469673156738 33.29474258422852 9.84785270690918 27.92794036865234 C 11.95365333557129 23.97690773010254 13.58736991882324 21.53359031677246 15.31056976318359 19.75809097290039 C 16.9620189666748 18.0565242767334 18.76413726806641 16.87602424621582 21.49197006225586 15.08912467956543 C 23.07441902160645 14.05252456665039 24.86800384521484 12.87760734558105 27.05426979064941 11.32495784759521 C 31.00165367126465 8.521541595458984 35.35128784179688 6.380224227905273 39.98236846923828 4.960441112518311 C 44.32035446166992 3.630524396896362 48.81533813476563 2.956207752227783 53.34248733520508 2.956207752227783 C 54.10010147094727 2.956207752227783 54.83795166015625 2.952807903289795 55.55152130126953 2.949524402618408 C 56.23960113525391 2.946357727050781 56.8895378112793 2.943357706069946 57.53340148925781 2.943357706069946 C 61.91170120239258 2.943357706069946 65.86455535888672 3.063007831573486 69.90377044677734 4.533340930938721 C 74.15290069580078 6.080090999603271 78.58761596679688 9.157024383544922 83.86009979248047 14.21659088134766 C 87.43260192871094 17.64485740661621 90.12285614013672 20.4858570098877 92.32643890380859 23.15737533569336 C 94.6959228515625 26.03000831604004 96.52783966064453 28.75379180908203 97.92687225341797 31.48440742492676 C 100.819206237793 37.12959289550781 102.1090393066406 43.26904296875 102.1090393066406 51.39105606079102 C 102.1090393066406 60.02407455444336 100.6630859375 68.19509124755859 98.14193725585938 73.80900573730469 L 98.08441925048828 73.93708801269531 L 98.03910064697266 74.07000732421875 C 96.75592041015625 77.83402252197266 94.867919921875 82.70240783691406 91.63103485107422 86.97469329833984 C 88.15097045898438 91.56793975830078 83.66072082519531 94.83970642089844 77.90370178222656 96.97692108154297 C 64.31484985351563 102.0216064453125 61.54996871948242 102.0216064453125 53.34248733520508 102.0216064453125 Z" stroke="none"/>
      <path d="M 57.53337860107422 5.943351745605469 L 55.56529998779297 5.949478149414063 L 53.34247970581055 5.956192016601563 C 47.16213989257813 5.956192016601563 37.88590240478516 7.311973571777344 28.79132080078125 13.77091217041016 C 26.57794189453125 15.34281158447266 24.73200225830078 16.55305480957031 23.13584136962891 17.5986328125 C 17.8280029296875 21.07561492919922 16.40139770507813 22.01011657714844 12.49530029296875 29.33895111083984 C 6.9813232421875 39.68459320068359 6 44.6104736328125 6 53.2986946105957 C 6 58.78439331054688 9.034080505371094 69.31795501708984 10.04540252685547 72.48519897460938 C 10.08821868896484 72.58865356445313 14.40709686279297 82.90225219726563 21.42791748046875 89.06767272949219 C 31.65834045410156 98.05167388916016 47.15478134155273 99.02159118652344 53.34247970581055 99.02159118652344 C 61.35713958740234 99.02159118652344 63.7760009765625 99.02159118652344 76.85960388183594 94.16447448730469 C 88.08831787109375 89.99593353271484 92.31005859375 81.57791137695313 95.40524291992188 72.57997131347656 C 97.75905609130859 67.33866882324219 99.10903930664063 59.61561584472656 99.10903930664063 51.39105606079102 C 99.10903930664063 36.95925140380859 95.38474273681641 29.43375396728516 81.78292083740234 16.38115692138672 C 70.90594482421875 5.943351745605469 65.58604431152344 5.943351745605469 57.53337860107422 5.943351745605469 M 57.53337478637695 -0.05664825439453125 C 67.28865051269531 -0.05664825439453125 74.03428649902344 0.6296615600585938 85.937255859375 12.05201721191406 C 99.46705627441406 25.03551483154297 105.1090393066406 34.12729644775391 105.1090393066406 51.39105606079102 C 105.1090393066406 59.16855621337891 103.9232406616211 68.25851440429688 100.8786392211914 75.03801727294922 C 97.86225891113281 83.88605499267578 92.92156219482422 94.60177612304688 78.94777679443359 99.78937530517578 C 64.97401428222656 104.9769515991211 61.82051849365234 105.0215911865234 53.34247970581055 105.0215911865234 C 41.54853820800781 105.0215911865234 27.27388000488281 102.1865158081055 17.46881866455078 93.57605743408203 C 9.249542236328125 86.35819244384766 4.497581481933594 74.77027893066406 4.497581481933594 74.77027893066406 C 4.497581481933594 74.77027893066406 0 60.95851516723633 0 53.2986946105957 C 0 43.57683563232422 1.297538757324219 37.59215545654297 7.200401306152344 26.51689147949219 C 13.10325622558594 15.44163513183594 15.40350341796875 15.91957092285156 25.31719970703125 8.879035949707031 C 34.04872131347656 2.677932739257813 44.00616073608398 -0.0438079833984375 53.34247970581055 -0.0438079833984375 C 54.80897521972656 -0.0438079833984375 56.20009231567383 -0.05664825439453125 57.53337478637695 -0.05664825439453125 Z" stroke="none" fill="#242424"/>
    </g>
    <g id="Pfad_20" data-name="Pfad 20" transform="translate(219.104 240.707) rotate(25)" fill="#e9e9e9">
      <path d="M 53.34248733520508 102.0216064453125 C 47.12337112426758 102.0216064453125 40.94713592529297 101.1989059448242 35.48146820068359 99.6424560546875 C 29.04150390625 97.80857086181641 23.64718627929688 95.00910949707031 19.44838714599609 91.32187652587891 C 12.22884464263916 84.98195648193359 7.781935214996338 74.82884979248047 7.313990116119385 73.72877502441406 C 6.89445161819458 72.41588592529297 3.000003099441528 60.04186248779297 3.000003099441528 53.29869079589844 C 3.000003099441528 48.2172737121582 3.373903036117554 44.70290756225586 4.29056978225708 41.16845703125 C 5.273536205291748 37.37827301025391 6.987469673156738 33.29474258422852 9.84785270690918 27.92794036865234 C 11.95365333557129 23.97690773010254 13.58736991882324 21.53359031677246 15.31056976318359 19.75809097290039 C 16.9620189666748 18.0565242767334 18.76413726806641 16.87602424621582 21.49197006225586 15.08912467956543 C 23.07441902160645 14.05252456665039 24.86800384521484 12.87760734558105 27.05426979064941 11.32495784759521 C 31.00165367126465 8.521541595458984 35.35128784179688 6.380224227905273 39.98236846923828 4.960441112518311 C 44.32035446166992 3.630524396896362 48.81533813476563 2.956207752227783 53.34248733520508 2.956207752227783 C 54.10010147094727 2.956207752227783 54.83795166015625 2.952807903289795 55.55152130126953 2.949524402618408 C 56.23960113525391 2.946357727050781 56.8895378112793 2.943357706069946 57.53340148925781 2.943357706069946 C 61.91170120239258 2.943357706069946 65.86455535888672 3.063007831573486 69.90377044677734 4.533340930938721 C 74.15290069580078 6.080090999603271 78.58761596679688 9.157024383544922 83.86009979248047 14.21659088134766 C 87.43260192871094 17.64485740661621 90.12285614013672 20.4858570098877 92.32643890380859 23.15737533569336 C 94.6959228515625 26.03000831604004 96.52783966064453 28.75379180908203 97.92687225341797 31.48440742492676 C 100.819206237793 37.12959289550781 102.1090393066406 43.26904296875 102.1090393066406 51.39105606079102 C 102.1090393066406 60.02407455444336 100.6630859375 68.19509124755859 98.14193725585938 73.80900573730469 L 98.08441925048828 73.93708801269531 L 98.03910064697266 74.07000732421875 C 96.75592041015625 77.83402252197266 94.867919921875 82.70240783691406 91.63103485107422 86.97469329833984 C 88.15097045898438 91.56793975830078 83.66072082519531 94.83970642089844 77.90370178222656 96.97692108154297 C 64.31484985351563 102.0216064453125 61.54996871948242 102.0216064453125 53.34248733520508 102.0216064453125 Z" stroke="none"/>
      <path d="M 57.53337860107422 5.943351745605469 L 55.56529998779297 5.949478149414063 L 53.34247970581055 5.956192016601563 C 47.16213989257813 5.956192016601563 37.88590240478516 7.311973571777344 28.79132080078125 13.77091217041016 C 26.57794189453125 15.34281158447266 24.73200225830078 16.55305480957031 23.13584136962891 17.5986328125 C 17.8280029296875 21.07561492919922 16.40139770507813 22.01011657714844 12.49530029296875 29.33895111083984 C 6.9813232421875 39.68459320068359 6 44.6104736328125 6 53.2986946105957 C 6 58.78439331054688 9.034080505371094 69.31795501708984 10.04540252685547 72.48519897460938 C 10.08821868896484 72.58865356445313 14.40709686279297 82.90225219726563 21.42791748046875 89.06767272949219 C 31.65834045410156 98.05167388916016 47.15478134155273 99.02159118652344 53.34247970581055 99.02159118652344 C 61.35713958740234 99.02159118652344 63.7760009765625 99.02159118652344 76.85960388183594 94.16447448730469 C 88.08831787109375 89.99593353271484 92.31005859375 81.57791137695313 95.40524291992188 72.57997131347656 C 97.75905609130859 67.33866882324219 99.10903930664063 59.61561584472656 99.10903930664063 51.39105606079102 C 99.10903930664063 36.95925140380859 95.38474273681641 29.43375396728516 81.78292083740234 16.38115692138672 C 70.90594482421875 5.943351745605469 65.58604431152344 5.943351745605469 57.53337860107422 5.943351745605469 M 57.53337478637695 -0.05664825439453125 C 67.28865051269531 -0.05664825439453125 74.03428649902344 0.6296615600585938 85.937255859375 12.05201721191406 C 99.46705627441406 25.03551483154297 105.1090393066406 34.12729644775391 105.1090393066406 51.39105606079102 C 105.1090393066406 59.16855621337891 103.9232406616211 68.25851440429688 100.8786392211914 75.03801727294922 C 97.86225891113281 83.88605499267578 92.92156219482422 94.60177612304688 78.94777679443359 99.78937530517578 C 64.97401428222656 104.9769515991211 61.82051849365234 105.0215911865234 53.34247970581055 105.0215911865234 C 41.54853820800781 105.0215911865234 27.27388000488281 102.1865158081055 17.46881866455078 93.57605743408203 C 9.249542236328125 86.35819244384766 4.497581481933594 74.77027893066406 4.497581481933594 74.77027893066406 C 4.497581481933594 74.77027893066406 0 60.95851516723633 0 53.2986946105957 C 0 43.57683563232422 1.297538757324219 37.59215545654297 7.200401306152344 26.51689147949219 C 13.10325622558594 15.44163513183594 15.40350341796875 15.91957092285156 25.31719970703125 8.879035949707031 C 34.04872131347656 2.677932739257813 44.00616073608398 -0.0438079833984375 53.34247970581055 -0.0438079833984375 C 54.80897521972656 -0.0438079833984375 56.20009231567383 -0.05664825439453125 57.53337478637695 -0.05664825439453125 Z" stroke="none" fill="#242424"/>
    </g>
    <g id="Pfad_22" data-name="Pfad 22" transform="translate(750 41)" fill="#e9e9e9">
      <path d="M 53.34248733520508 102.0216064453125 C 47.12337112426758 102.0216064453125 40.94713592529297 101.1989059448242 35.48146820068359 99.6424560546875 C 29.04150390625 97.80857086181641 23.64718627929688 95.00910949707031 19.44838714599609 91.32187652587891 C 12.22884464263916 84.98195648193359 7.781935214996338 74.82884979248047 7.313990116119385 73.72877502441406 C 6.89445161819458 72.41588592529297 3.000003099441528 60.04186248779297 3.000003099441528 53.29869079589844 C 3.000003099441528 48.2172737121582 3.373903036117554 44.70290756225586 4.29056978225708 41.16845703125 C 5.273536205291748 37.37827301025391 6.987469673156738 33.29474258422852 9.84785270690918 27.92794036865234 C 11.95365333557129 23.97690773010254 13.58736991882324 21.53359031677246 15.31056976318359 19.75809097290039 C 16.9620189666748 18.0565242767334 18.76413726806641 16.87602424621582 21.49197006225586 15.08912467956543 C 23.07441902160645 14.05252456665039 24.86800384521484 12.87760734558105 27.05426979064941 11.32495784759521 C 31.00165367126465 8.521541595458984 35.35128784179688 6.380224227905273 39.98236846923828 4.960441112518311 C 44.32035446166992 3.630524396896362 48.81533813476563 2.956207752227783 53.34248733520508 2.956207752227783 C 54.10010147094727 2.956207752227783 54.83795166015625 2.952807903289795 55.55152130126953 2.949524402618408 C 56.23960113525391 2.946357727050781 56.8895378112793 2.943357706069946 57.53340148925781 2.943357706069946 C 61.91170120239258 2.943357706069946 65.86455535888672 3.063007831573486 69.90377044677734 4.533340930938721 C 74.15290069580078 6.080090999603271 78.58761596679688 9.157024383544922 83.86009979248047 14.21659088134766 C 87.43260192871094 17.64485740661621 90.12285614013672 20.4858570098877 92.32643890380859 23.15737533569336 C 94.6959228515625 26.03000831604004 96.52783966064453 28.75379180908203 97.92687225341797 31.48440742492676 C 100.819206237793 37.12959289550781 102.1090393066406 43.26904296875 102.1090393066406 51.39105606079102 C 102.1090393066406 60.02407455444336 100.6630859375 68.19509124755859 98.14193725585938 73.80900573730469 L 98.08441925048828 73.93708801269531 L 98.03910064697266 74.07000732421875 C 96.75592041015625 77.83402252197266 94.867919921875 82.70240783691406 91.63103485107422 86.97469329833984 C 88.15097045898438 91.56793975830078 83.66072082519531 94.83970642089844 77.90370178222656 96.97692108154297 C 64.31484985351563 102.0216064453125 61.54996871948242 102.0216064453125 53.34248733520508 102.0216064453125 Z" stroke="none"/>
      <path d="M 57.53337860107422 5.943351745605469 L 55.56529998779297 5.949478149414063 L 53.34247970581055 5.956192016601563 C 47.16213989257813 5.956192016601563 37.88590240478516 7.311973571777344 28.79132080078125 13.77091217041016 C 26.57794189453125 15.34281158447266 24.73200225830078 16.55305480957031 23.13584136962891 17.5986328125 C 17.8280029296875 21.07561492919922 16.40139770507813 22.01011657714844 12.49530029296875 29.33895111083984 C 6.9813232421875 39.68459320068359 6 44.6104736328125 6 53.2986946105957 C 6 58.78439331054688 9.034080505371094 69.31795501708984 10.04540252685547 72.48519897460938 C 10.08821868896484 72.58865356445313 14.40709686279297 82.90225219726563 21.42791748046875 89.06767272949219 C 31.65834045410156 98.05167388916016 47.15478134155273 99.02159118652344 53.34247970581055 99.02159118652344 C 61.35713958740234 99.02159118652344 63.7760009765625 99.02159118652344 76.85960388183594 94.16447448730469 C 88.08831787109375 89.99593353271484 92.31005859375 81.57791137695313 95.40524291992188 72.57997131347656 C 97.75905609130859 67.33866882324219 99.10903930664063 59.61561584472656 99.10903930664063 51.39105606079102 C 99.10903930664063 36.95925140380859 95.38474273681641 29.43375396728516 81.78292083740234 16.38115692138672 C 70.90594482421875 5.943351745605469 65.58604431152344 5.943351745605469 57.53337860107422 5.943351745605469 M 57.53337478637695 -0.05664825439453125 C 67.28865051269531 -0.05664825439453125 74.03428649902344 0.6296615600585938 85.937255859375 12.05201721191406 C 99.46705627441406 25.03551483154297 105.1090393066406 34.12729644775391 105.1090393066406 51.39105606079102 C 105.1090393066406 59.16855621337891 103.9232406616211 68.25851440429688 100.8786392211914 75.03801727294922 C 97.86225891113281 83.88605499267578 92.92156219482422 94.60177612304688 78.94777679443359 99.78937530517578 C 64.97401428222656 104.9769515991211 61.82051849365234 105.0215911865234 53.34247970581055 105.0215911865234 C 41.54853820800781 105.0215911865234 27.27388000488281 102.1865158081055 17.46881866455078 93.57605743408203 C 9.249542236328125 86.35819244384766 4.497581481933594 74.77027893066406 4.497581481933594 74.77027893066406 C 4.497581481933594 74.77027893066406 0 60.95851516723633 0 53.2986946105957 C 0 43.57683563232422 1.297538757324219 37.59215545654297 7.200401306152344 26.51689147949219 C 13.10325622558594 15.44163513183594 15.40350341796875 15.91957092285156 25.31719970703125 8.879035949707031 C 34.04872131347656 2.677932739257813 44.00616073608398 -0.0438079833984375 53.34247970581055 -0.0438079833984375 C 54.80897521972656 -0.0438079833984375 56.20009231567383 -0.05664825439453125 57.53337478637695 -0.05664825439453125 Z" stroke="none" fill="#242424"/>
    </g>
    <g id="Pfad_24" data-name="Pfad 24" transform="translate(787.915 93.281) rotate(34)" fill="#ff3f3f">
      <path d="M 53.34248352050781 103.6411743164063 C 50.70136642456055 103.6411743164063 47.79204940795898 103.2692718505859 44.69535064697266 102.5358047485352 C 41.67480087280273 101.8203887939453 38.54634857177734 100.7784881591797 35.39690017700195 99.43907165527344 C 29.15979957580566 96.78652191162109 23.18543434143066 93.09563446044922 18.57435035705566 89.04634094238281 C 11.4086856842041 82.75373077392578 7.743027210235596 74.70552825927734 7.310286998748779 73.71718597412109 C 6.872006416320801 72.34452056884766 3.000000238418579 60.02238082885742 3.000000238418579 53.29868698120117 C 3.000000238418579 48.21726989746094 3.373900175094604 44.70290374755859 4.290566921234131 41.16845321655273 C 5.273533344268799 37.37826919555664 6.987466812133789 33.29473876953125 9.84784984588623 27.92793655395508 C 12.49515056610107 22.96090316772461 13.88541698455811 20.72562026977539 15.3574333190918 19.06955337524414 C 16.89203262329102 17.34307098388672 18.69868278503418 16.0866870880127 21.97845077514648 13.80587100982666 C 22.96433258056641 13.12027072906494 24.08175086975098 12.34318733215332 25.34848403930664 11.44357013702393 C 29.16348266601563 8.734170913696289 33.91101837158203 6.518153667449951 39.07785034179688 5.035070419311523 C 43.81589889526367 3.675070524215698 48.74853515625 2.956203937530518 53.34248352050781 2.956203937530518 C 54.33860015869141 2.956203937530518 55.29746627807617 2.948070526123047 56.22476577758789 2.940203905105591 C 57.10178375244141 2.932753801345825 57.93016815185547 2.925720453262329 58.74454879760742 2.925720453262329 C 63.4559326171875 2.925720453262329 66.88784790039063 3.195353984832764 70.48780059814453 4.573554039001465 C 74.60928344726563 6.151403903961182 78.84439849853516 9.201804161071777 83.81594848632813 14.17335414886475 C 91.23693084716797 21.5943546295166 95.68081665039063 27.11503791809082 98.67516326904297 32.63315200805664 C 102.0930633544922 38.93177032470703 103.6849670410156 45.49840545654297 103.6849670410156 53.29868698120117 C 103.6849670410156 56.57107162475586 103.1492156982422 59.97023773193359 102.0471038818359 63.69045257568359 C 100.9557189941406 67.37447357177734 99.46056365966797 70.87278747558594 98.14193725585938 73.80899047851563 L 98.08441925048828 73.93708801269531 L 98.03910064697266 74.07000732421875 C 96.35175323486328 79.01956939697266 93.9661865234375 83.36680603027344 90.94866943359375 86.990966796875 C 87.09335327148438 91.62135314941406 82.18755340576172 95.06467437744141 76.36751556396484 97.22528839111328 C 73.61898040771484 98.24563598632813 71.38388061523438 99.10622406005859 69.41190338134766 99.86548614501953 C 65.56770324707031 101.3456192016602 63.02806854248047 102.3234405517578 60.76493453979492 102.8904571533203 C 58.60866546630859 103.4306869506836 56.5275993347168 103.6411743164063 53.34248352050781 103.6411743164063 Z" stroke="none"/>
      <path d="M 58.74448394775391 5.925704956054688 L 56.25020217895508 5.9400634765625 L 53.34248352050781 5.956184387207031 C 46.04928207397461 5.956184387207031 35.32162475585938 8.040267944335938 27.08554077148438 13.88950347900391 L 23.6912841796875 16.26882934570313 C 17.34988403320313 20.67876434326172 16.97028350830078 20.94276428222656 12.49528503417969 29.33896636962891 C 6.981300354003906 39.68460845947266 6 44.61048889160156 6 53.29868698120117 C 6 58.78440856933594 9.034080505371094 69.31794738769531 10.02976226806641 72.44757080078125 C 10.06414031982422 72.52880859375 13.55010223388672 80.64168548583984 20.55390167236328 86.79214477539063 C 29.69188690185547 94.81680297851563 43.48146438598633 100.6411666870117 53.34248352050781 100.6411666870117 C 59.04804229736328 100.6411666870117 60.6475830078125 100.0253067016602 68.3338623046875 97.06586456298828 L 75.32342529296875 94.41282653808594 C 84.90404510498047 90.85614776611328 91.59134674072266 83.68614959716797 95.40524291992188 72.57998657226563 C 98.5743408203125 65.52328491210938 100.6849670410156 59.54384613037109 100.6849670410156 53.29868698120117 C 100.6849670410156 38.07098388671875 94.28972625732422 28.88978576660156 81.69462585449219 16.29467010498047 C 71.80720520019531 6.407264709472656 66.77958679199219 5.925704956054688 58.74448394775391 5.925704956054688 M 58.74448394775391 -0.07428741455078125 C 67.90853118896484 -0.07428741455078125 74.69184875488281 0.806610107421875 85.93726348876953 12.05202484130859 C 99.27288055419922 25.38764953613281 106.6849670410156 36.03492736816406 106.6849670410156 53.29868698120117 C 106.6849670410156 61.07618713378906 103.9232406616211 68.25852966308594 100.8786468505859 75.03802490234375 C 97.86226654052734 83.88606262207031 91.38536071777344 94.85014343261719 77.41160583496094 100.037727355957 C 63.43782424926758 105.2253036499023 61.82052230834961 106.6411666870117 53.34248352050781 106.6411666870117 C 41.54854583740234 106.6411666870117 26.39984130859375 99.91098785400391 16.59480285644531 91.30052947998047 C 8.375503540039063 84.08266448974609 4.497581481933594 74.770263671875 4.497581481933594 74.770263671875 C 4.497581481933594 74.770263671875 0 60.95852661132813 0 53.29868698120117 C 0 43.57682800292969 1.29754638671875 37.59217071533203 7.200386047363281 26.51690673828125 C 13.10326385498047 15.44162750244141 13.69772338867188 16.03816986083984 23.61142730712891 8.997627258300781 C 32.34294128417969 2.796524047851563 44.00616455078125 -0.04381561279296875 53.34248352050781 -0.04381561279296875 C 55.2541389465332 -0.04381561279296875 57.0411491394043 -0.07428741455078125 58.74448394775391 -0.07428741455078125 Z" stroke="none" fill="#242424"/>
    </g>
    <g id="Pfad_21" data-name="Pfad 21" transform="translate(713 69)" fill="#ff3f3f">
      <path d="M 53.34248352050781 103.6411743164063 C 50.70136642456055 103.6411743164063 47.79204940795898 103.2692718505859 44.69535064697266 102.5358047485352 C 41.67480087280273 101.8203887939453 38.54634857177734 100.7784881591797 35.39690017700195 99.43907165527344 C 29.15979957580566 96.78652191162109 23.18543434143066 93.09563446044922 18.57435035705566 89.04634094238281 C 11.4086856842041 82.75373077392578 7.743027210235596 74.70552825927734 7.310286998748779 73.71718597412109 C 6.872006416320801 72.34452056884766 3.000000238418579 60.02238082885742 3.000000238418579 53.29868698120117 C 3.000000238418579 48.21726989746094 3.373900175094604 44.70290374755859 4.290566921234131 41.16845321655273 C 5.273533344268799 37.37826919555664 6.987466812133789 33.29473876953125 9.84784984588623 27.92793655395508 C 12.49515056610107 22.96090316772461 13.88541698455811 20.72562026977539 15.3574333190918 19.06955337524414 C 16.89203262329102 17.34307098388672 18.69868278503418 16.0866870880127 21.97845077514648 13.80587100982666 C 22.96433258056641 13.12027072906494 24.08175086975098 12.34318733215332 25.34848403930664 11.44357013702393 C 29.16348266601563 8.734170913696289 33.91101837158203 6.518153667449951 39.07785034179688 5.035070419311523 C 43.81589889526367 3.675070524215698 48.74853515625 2.956203937530518 53.34248352050781 2.956203937530518 C 54.33860015869141 2.956203937530518 55.29746627807617 2.948070526123047 56.22476577758789 2.940203905105591 C 57.10178375244141 2.932753801345825 57.93016815185547 2.925720453262329 58.74454879760742 2.925720453262329 C 63.4559326171875 2.925720453262329 66.88784790039063 3.195353984832764 70.48780059814453 4.573554039001465 C 74.60928344726563 6.151403903961182 78.84439849853516 9.201804161071777 83.81594848632813 14.17335414886475 C 91.23693084716797 21.5943546295166 95.68081665039063 27.11503791809082 98.67516326904297 32.63315200805664 C 102.0930633544922 38.93177032470703 103.6849670410156 45.49840545654297 103.6849670410156 53.29868698120117 C 103.6849670410156 56.57107162475586 103.1492156982422 59.97023773193359 102.0471038818359 63.69045257568359 C 100.9557189941406 67.37447357177734 99.46056365966797 70.87278747558594 98.14193725585938 73.80899047851563 L 98.08441925048828 73.93708801269531 L 98.03910064697266 74.07000732421875 C 96.35175323486328 79.01956939697266 93.9661865234375 83.36680603027344 90.94866943359375 86.990966796875 C 87.09335327148438 91.62135314941406 82.18755340576172 95.06467437744141 76.36751556396484 97.22528839111328 C 73.61898040771484 98.24563598632813 71.38388061523438 99.10622406005859 69.41190338134766 99.86548614501953 C 65.56770324707031 101.3456192016602 63.02806854248047 102.3234405517578 60.76493453979492 102.8904571533203 C 58.60866546630859 103.4306869506836 56.5275993347168 103.6411743164063 53.34248352050781 103.6411743164063 Z" stroke="none"/>
      <path d="M 58.74448394775391 5.925704956054688 L 56.25020217895508 5.9400634765625 L 53.34248352050781 5.956184387207031 C 46.04928207397461 5.956184387207031 35.32162475585938 8.040267944335938 27.08554077148438 13.88950347900391 L 23.6912841796875 16.26882934570313 C 17.34988403320313 20.67876434326172 16.97028350830078 20.94276428222656 12.49528503417969 29.33896636962891 C 6.981300354003906 39.68460845947266 6 44.61048889160156 6 53.29868698120117 C 6 58.78440856933594 9.034080505371094 69.31794738769531 10.02976226806641 72.44757080078125 C 10.06414031982422 72.52880859375 13.55010223388672 80.64168548583984 20.55390167236328 86.79214477539063 C 29.69188690185547 94.81680297851563 43.48146438598633 100.6411666870117 53.34248352050781 100.6411666870117 C 59.04804229736328 100.6411666870117 60.6475830078125 100.0253067016602 68.3338623046875 97.06586456298828 L 75.32342529296875 94.41282653808594 C 84.90404510498047 90.85614776611328 91.59134674072266 83.68614959716797 95.40524291992188 72.57998657226563 C 98.5743408203125 65.52328491210938 100.6849670410156 59.54384613037109 100.6849670410156 53.29868698120117 C 100.6849670410156 38.07098388671875 94.28972625732422 28.88978576660156 81.69462585449219 16.29467010498047 C 71.80720520019531 6.407264709472656 66.77958679199219 5.925704956054688 58.74448394775391 5.925704956054688 M 58.74448394775391 -0.07428741455078125 C 67.90853118896484 -0.07428741455078125 74.69184875488281 0.806610107421875 85.93726348876953 12.05202484130859 C 99.27288055419922 25.38764953613281 106.6849670410156 36.03492736816406 106.6849670410156 53.29868698120117 C 106.6849670410156 61.07618713378906 103.9232406616211 68.25852966308594 100.8786468505859 75.03802490234375 C 97.86226654052734 83.88606262207031 91.38536071777344 94.85014343261719 77.41160583496094 100.037727355957 C 63.43782424926758 105.2253036499023 61.82052230834961 106.6411666870117 53.34248352050781 106.6411666870117 C 41.54854583740234 106.6411666870117 26.39984130859375 99.91098785400391 16.59480285644531 91.30052947998047 C 8.375503540039063 84.08266448974609 4.497581481933594 74.770263671875 4.497581481933594 74.770263671875 C 4.497581481933594 74.770263671875 0 60.95852661132813 0 53.29868698120117 C 0 43.57682800292969 1.29754638671875 37.59217071533203 7.200386047363281 26.51690673828125 C 13.10326385498047 15.44162750244141 13.69772338867188 16.03816986083984 23.61142730712891 8.997627258300781 C 32.34294128417969 2.796524047851563 44.00616455078125 -0.04381561279296875 53.34248352050781 -0.04381561279296875 C 55.2541389465332 -0.04381561279296875 57.0411491394043 -0.07428741455078125 58.74448394775391 -0.07428741455078125 Z" stroke="none" fill="#242424"/>
    </g>
    <g id="Pfad_23" data-name="Pfad 23" transform="translate(819.104 68.707) rotate(25)" fill="#e9e9e9">
      <path d="M 53.34248733520508 102.0216064453125 C 47.12337112426758 102.0216064453125 40.94713592529297 101.1989059448242 35.48146820068359 99.6424560546875 C 29.04150390625 97.80857086181641 23.64718627929688 95.00910949707031 19.44838714599609 91.32187652587891 C 12.22884464263916 84.98195648193359 7.781935214996338 74.82884979248047 7.313990116119385 73.72877502441406 C 6.89445161819458 72.41588592529297 3.000003099441528 60.04186248779297 3.000003099441528 53.29869079589844 C 3.000003099441528 48.2172737121582 3.373903036117554 44.70290756225586 4.29056978225708 41.16845703125 C 5.273536205291748 37.37827301025391 6.987469673156738 33.29474258422852 9.84785270690918 27.92794036865234 C 11.95365333557129 23.97690773010254 13.58736991882324 21.53359031677246 15.31056976318359 19.75809097290039 C 16.9620189666748 18.0565242767334 18.76413726806641 16.87602424621582 21.49197006225586 15.08912467956543 C 23.07441902160645 14.05252456665039 24.86800384521484 12.87760734558105 27.05426979064941 11.32495784759521 C 31.00165367126465 8.521541595458984 35.35128784179688 6.380224227905273 39.98236846923828 4.960441112518311 C 44.32035446166992 3.630524396896362 48.81533813476563 2.956207752227783 53.34248733520508 2.956207752227783 C 54.10010147094727 2.956207752227783 54.83795166015625 2.952807903289795 55.55152130126953 2.949524402618408 C 56.23960113525391 2.946357727050781 56.8895378112793 2.943357706069946 57.53340148925781 2.943357706069946 C 61.91170120239258 2.943357706069946 65.86455535888672 3.063007831573486 69.90377044677734 4.533340930938721 C 74.15290069580078 6.080090999603271 78.58761596679688 9.157024383544922 83.86009979248047 14.21659088134766 C 87.43260192871094 17.64485740661621 90.12285614013672 20.4858570098877 92.32643890380859 23.15737533569336 C 94.6959228515625 26.03000831604004 96.52783966064453 28.75379180908203 97.92687225341797 31.48440742492676 C 100.819206237793 37.12959289550781 102.1090393066406 43.26904296875 102.1090393066406 51.39105606079102 C 102.1090393066406 60.02407455444336 100.6630859375 68.19509124755859 98.14193725585938 73.80900573730469 L 98.08441925048828 73.93708801269531 L 98.03910064697266 74.07000732421875 C 96.75592041015625 77.83402252197266 94.867919921875 82.70240783691406 91.63103485107422 86.97469329833984 C 88.15097045898438 91.56793975830078 83.66072082519531 94.83970642089844 77.90370178222656 96.97692108154297 C 64.31484985351563 102.0216064453125 61.54996871948242 102.0216064453125 53.34248733520508 102.0216064453125 Z" stroke="none"/>
      <path d="M 57.53337860107422 5.943351745605469 L 55.56529998779297 5.949478149414063 L 53.34247970581055 5.956192016601563 C 47.16213989257813 5.956192016601563 37.88590240478516 7.311973571777344 28.79132080078125 13.77091217041016 C 26.57794189453125 15.34281158447266 24.73200225830078 16.55305480957031 23.13584136962891 17.5986328125 C 17.8280029296875 21.07561492919922 16.40139770507813 22.01011657714844 12.49530029296875 29.33895111083984 C 6.9813232421875 39.68459320068359 6 44.6104736328125 6 53.2986946105957 C 6 58.78439331054688 9.034080505371094 69.31795501708984 10.04540252685547 72.48519897460938 C 10.08821868896484 72.58865356445313 14.40709686279297 82.90225219726563 21.42791748046875 89.06767272949219 C 31.65834045410156 98.05167388916016 47.15478134155273 99.02159118652344 53.34247970581055 99.02159118652344 C 61.35713958740234 99.02159118652344 63.7760009765625 99.02159118652344 76.85960388183594 94.16447448730469 C 88.08831787109375 89.99593353271484 92.31005859375 81.57791137695313 95.40524291992188 72.57997131347656 C 97.75905609130859 67.33866882324219 99.10903930664063 59.61561584472656 99.10903930664063 51.39105606079102 C 99.10903930664063 36.95925140380859 95.38474273681641 29.43375396728516 81.78292083740234 16.38115692138672 C 70.90594482421875 5.943351745605469 65.58604431152344 5.943351745605469 57.53337860107422 5.943351745605469 M 57.53337478637695 -0.05664825439453125 C 67.28865051269531 -0.05664825439453125 74.03428649902344 0.6296615600585938 85.937255859375 12.05201721191406 C 99.46705627441406 25.03551483154297 105.1090393066406 34.12729644775391 105.1090393066406 51.39105606079102 C 105.1090393066406 59.16855621337891 103.9232406616211 68.25851440429688 100.8786392211914 75.03801727294922 C 97.86225891113281 83.88605499267578 92.92156219482422 94.60177612304688 78.94777679443359 99.78937530517578 C 64.97401428222656 104.9769515991211 61.82051849365234 105.0215911865234 53.34247970581055 105.0215911865234 C 41.54853820800781 105.0215911865234 27.27388000488281 102.1865158081055 17.46881866455078 93.57605743408203 C 9.249542236328125 86.35819244384766 4.497581481933594 74.77027893066406 4.497581481933594 74.77027893066406 C 4.497581481933594 74.77027893066406 0 60.95851516723633 0 53.2986946105957 C 0 43.57683563232422 1.297538757324219 37.59215545654297 7.200401306152344 26.51689147949219 C 13.10325622558594 15.44163513183594 15.40350341796875 15.91957092285156 25.31719970703125 8.879035949707031 C 34.04872131347656 2.677932739257813 44.00616073608398 -0.0438079833984375 53.34247970581055 -0.0438079833984375 C 54.80897521972656 -0.0438079833984375 56.20009231567383 -0.05664825439453125 57.53337478637695 -0.05664825439453125 Z" stroke="none" fill="#242424"/>
    </g>
    <g id="Pfad_25" data-name="Pfad 25" transform="translate(749.56 379.06) rotate(-40)" fill="#e9e9e9">
      <path d="M 53.34248733520508 102.0216064453125 C 47.12337112426758 102.0216064453125 40.94713592529297 101.1989059448242 35.48146820068359 99.6424560546875 C 29.04150390625 97.80857086181641 23.64718627929688 95.00910949707031 19.44838714599609 91.32187652587891 C 12.22884464263916 84.98195648193359 7.781935214996338 74.82884979248047 7.313990116119385 73.72877502441406 C 6.89445161819458 72.41588592529297 3.000003099441528 60.04186248779297 3.000003099441528 53.29869079589844 C 3.000003099441528 48.2172737121582 3.373903036117554 44.70290756225586 4.29056978225708 41.16845703125 C 5.273536205291748 37.37827301025391 6.987469673156738 33.29474258422852 9.84785270690918 27.92794036865234 C 11.95365333557129 23.97690773010254 13.58736991882324 21.53359031677246 15.31056976318359 19.75809097290039 C 16.9620189666748 18.0565242767334 18.76413726806641 16.87602424621582 21.49197006225586 15.08912467956543 C 23.07441902160645 14.05252456665039 24.86800384521484 12.87760734558105 27.05426979064941 11.32495784759521 C 31.00165367126465 8.521541595458984 35.35128784179688 6.380224227905273 39.98236846923828 4.960441112518311 C 44.32035446166992 3.630524396896362 48.81533813476563 2.956207752227783 53.34248733520508 2.956207752227783 C 54.10010147094727 2.956207752227783 54.83795166015625 2.952807903289795 55.55152130126953 2.949524402618408 C 56.23960113525391 2.946357727050781 56.8895378112793 2.943357706069946 57.53340148925781 2.943357706069946 C 61.91170120239258 2.943357706069946 65.86455535888672 3.063007831573486 69.90377044677734 4.533340930938721 C 74.15290069580078 6.080090999603271 78.58761596679688 9.157024383544922 83.86009979248047 14.21659088134766 C 87.43260192871094 17.64485740661621 90.12285614013672 20.4858570098877 92.32643890380859 23.15737533569336 C 94.6959228515625 26.03000831604004 96.52783966064453 28.75379180908203 97.92687225341797 31.48440742492676 C 100.819206237793 37.12959289550781 102.1090393066406 43.26904296875 102.1090393066406 51.39105606079102 C 102.1090393066406 60.02407455444336 100.6630859375 68.19509124755859 98.14193725585938 73.80900573730469 L 98.08441925048828 73.93708801269531 L 98.03910064697266 74.07000732421875 C 96.75592041015625 77.83402252197266 94.867919921875 82.70240783691406 91.63103485107422 86.97469329833984 C 88.15097045898438 91.56793975830078 83.66072082519531 94.83970642089844 77.90370178222656 96.97692108154297 C 64.31484985351563 102.0216064453125 61.54996871948242 102.0216064453125 53.34248733520508 102.0216064453125 Z" stroke="none"/>
      <path d="M 57.53337860107422 5.943351745605469 L 55.56529998779297 5.949478149414063 L 53.34247970581055 5.956192016601563 C 47.16213989257813 5.956192016601563 37.88590240478516 7.311973571777344 28.79132080078125 13.77091217041016 C 26.57794189453125 15.34281158447266 24.73200225830078 16.55305480957031 23.13584136962891 17.5986328125 C 17.8280029296875 21.07561492919922 16.40139770507813 22.01011657714844 12.49530029296875 29.33895111083984 C 6.9813232421875 39.68459320068359 6 44.6104736328125 6 53.2986946105957 C 6 58.78439331054688 9.034080505371094 69.31795501708984 10.04540252685547 72.48519897460938 C 10.08821868896484 72.58865356445313 14.40709686279297 82.90225219726563 21.42791748046875 89.06767272949219 C 31.65834045410156 98.05167388916016 47.15478134155273 99.02159118652344 53.34247970581055 99.02159118652344 C 61.35713958740234 99.02159118652344 63.7760009765625 99.02159118652344 76.85960388183594 94.16447448730469 C 88.08831787109375 89.99593353271484 92.31005859375 81.57791137695313 95.40524291992188 72.57997131347656 C 97.75905609130859 67.33866882324219 99.10903930664063 59.61561584472656 99.10903930664063 51.39105606079102 C 99.10903930664063 36.95925140380859 95.38474273681641 29.43375396728516 81.78292083740234 16.38115692138672 C 70.90594482421875 5.943351745605469 65.58604431152344 5.943351745605469 57.53337860107422 5.943351745605469 M 57.53337478637695 -0.05664825439453125 C 67.28865051269531 -0.05664825439453125 74.03428649902344 0.6296615600585938 85.937255859375 12.05201721191406 C 99.46705627441406 25.03551483154297 105.1090393066406 34.12729644775391 105.1090393066406 51.39105606079102 C 105.1090393066406 59.16855621337891 103.9232406616211 68.25851440429688 100.8786392211914 75.03801727294922 C 97.86225891113281 83.88605499267578 92.92156219482422 94.60177612304688 78.94777679443359 99.78937530517578 C 64.97401428222656 104.9769515991211 61.82051849365234 105.0215911865234 53.34247970581055 105.0215911865234 C 41.54853820800781 105.0215911865234 27.27388000488281 102.1865158081055 17.46881866455078 93.57605743408203 C 9.249542236328125 86.35819244384766 4.497581481933594 74.77027893066406 4.497581481933594 74.77027893066406 C 4.497581481933594 74.77027893066406 0 60.95851516723633 0 53.2986946105957 C 0 43.57683563232422 1.297538757324219 37.59215545654297 7.200401306152344 26.51689147949219 C 13.10325622558594 15.44163513183594 15.40350341796875 15.91957092285156 25.31719970703125 8.879035949707031 C 34.04872131347656 2.677932739257813 44.00616073608398 -0.0438079833984375 53.34247970581055 -0.0438079833984375 C 54.80897521972656 -0.0438079833984375 56.20009231567383 -0.05664825439453125 57.53337478637695 -0.05664825439453125 Z" stroke="none" fill="#242424"/>
    </g>
    <line id="Linie_3" data-name="Linie 3" y1="137" x2="371" transform="translate(342.5 183.5)" fill="none" stroke="#242424" stroke-linecap="round" stroke-width="6"/>
    <line id="Linie_4" data-name="Linie 4" x2="424" y2="54" transform="translate(271.5 74.5)" fill="none" stroke="#242424" stroke-linecap="round" stroke-width="6"/>
    <line id="Linie_5" data-name="Linie 5" x2="435" y2="197" transform="translate(314.5 175.5)" fill="none" stroke="#242424" stroke-linecap="round" stroke-width="6"/>
  </g>
</svg>
